<?xml version="1.0" encoding="UTF-8"?>
<svg xmlns="http://www.w3.org/2000/svg" xmlns:xlink="http://www.w3.org/1999/xlink" width="64px" height="64px" viewBox="0 0 60 60" version="1.1">
<g id="surface1">
<path style=" stroke:none;fill-rule:nonzero;fill:rgb(100%,100%,100%);fill-opacity:1;" d="M 60.304688 60.515625 C 60.246094 60.808594 59.964844 60.992188 59.675781 60.929688 L 59.59375 60.910156 C 59.308594 60.847656 59.121094 60.5625 59.183594 60.277344 L 71.847656 0.4375 C 71.910156 0.148438 72.191406 -0.0351562 72.480469 0.0273438 L 72.5625 0.0429688 C 72.847656 0.109375 73.03125 0.390625 72.972656 0.679688 Z M 60.304688 60.515625 "/>
<path style=" stroke:none;fill-rule:nonzero;fill:rgb(98.039216%,64.313725%,10.196078%);fill-opacity:1;" d="M 56.992188 29.550781 C 56.992188 43.976562 44.230469 55.675781 28.496094 55.675781 C 12.761719 55.675781 0 43.976562 0 29.550781 C 0 15.121094 12.761719 3.425781 28.496094 3.425781 C 44.230469 3.425781 56.992188 15.121094 56.992188 29.550781 M 33.082031 45.054688 L 32.871094 42.351562 C 32.851562 42.097656 32.96875 41.957031 33.222656 41.941406 C 40.011719 41.480469 48.414062 37.417969 48.1875 29.777344 C 47.9375 21.21875 40.089844 18.59375 33.160156 17.644531 C 32.992188 17.621094 32.902344 17.523438 32.902344 17.347656 C 32.886719 14.832031 32.9375 12.320312 33.058594 9.8125 C 33.117188 8.40625 31.773438 8.277344 30.703125 8.644531 C 27.183594 9.84375 23.578125 10.671875 19.890625 11.140625 C 19.007812 11.253906 18.417969 11.511719 18.304688 12.414062 C 18.21875 13.121094 18.707031 13.769531 19.402344 13.875 L 22.851562 14.390625 C 23.789062 14.53125 24.261719 15.082031 24.261719 16.035156 L 24.230469 37.402344 C 24.226562 37.554688 24.300781 37.644531 24.453125 37.660156 C 27.160156 37.972656 29.855469 37.972656 32.554688 37.660156 C 32.773438 37.632812 32.9375 37.449219 32.9375 37.226562 L 32.90625 21.25 C 32.902344 21.089844 32.984375 21.011719 33.144531 21.027344 C 37.324219 21.359375 39.636719 23.597656 40.078125 27.726562 C 40.980469 36.238281 37.367188 38.683594 29.625 39.152344 C 25.558594 39.394531 18.859375 38.683594 17.535156 33.890625 C 16.222656 29.148438 16.75 22.386719 22.789062 21.269531 C 22.972656 21.238281 23.101562 21.066406 23.089844 20.875 L 22.910156 18.183594 C 22.898438 17.996094 22.796875 17.914062 22.613281 17.929688 C 19.226562 18.238281 16.179688 19.335938 13.476562 21.226562 C 7.546875 25.367188 7.523438 34.238281 13.484375 38.359375 C 16.464844 40.414062 19.890625 41.613281 23.773438 41.960938 C 23.921875 41.976562 24.019531 42.050781 24.066406 42.203125 C 25.390625 46.414062 21.789062 45.660156 19.410156 46.050781 C 18.707031 46.167969 18.246094 46.851562 18.394531 47.554688 C 18.722656 49.089844 20.035156 48.585938 21.066406 48.578125 C 26.128906 48.5625 31.183594 48.570312 36.238281 48.585938 C 37.023438 48.589844 38.09375 49.03125 38.578125 47.941406 C 38.90625 47.195312 38.765625 46.585938 38.15625 46.125 C 38.121094 46.101562 38.085938 46.085938 38.042969 46.082031 L 33.652344 45.636719 C 33.34375 45.605469 33.109375 45.363281 33.082031 45.054688 Z M 33.082031 45.054688 "/>
<path style=" stroke:none;fill-rule:nonzero;fill:rgb(100%,100%,100%);fill-opacity:1;" d="M 86.824219 15.34375 C 85.722656 15.328125 85.460938 15.34375 84.269531 15.386719 L 84.175781 15.296875 C 84.207031 13.257812 84.222656 11.234375 84.222656 9.195312 C 84.222656 7.703125 84.222656 6.847656 84.144531 4.453125 L 84.222656 4.359375 C 85.289062 4.375 85.617188 4.375 86.792969 4.3125 L 86.886719 4.40625 C 86.839844 5.789062 86.824219 7.160156 86.824219 8.527344 C 86.824219 10.785156 86.839844 13.023438 86.914062 15.25 Z M 86.824219 15.34375 "/>
<path style=" stroke:none;fill-rule:nonzero;fill:rgb(100%,100%,100%);fill-opacity:1;" d="M 92.324219 10.566406 L 92.324219 13.398438 L 92.957031 13.398438 C 94.644531 13.367188 95.035156 13.367188 95.714844 13.320312 L 95.808594 13.410156 C 95.746094 14.222656 95.730469 14.40625 95.699219 15.25 L 95.605469 15.339844 L 93.128906 15.339844 C 91.191406 15.339844 90.773438 15.339844 89.796875 15.386719 L 89.71875 15.292969 C 89.75 14.066406 89.765625 13.195312 89.765625 11.1875 C 89.765625 8.960938 89.75 6.085938 89.65625 4.433594 L 89.734375 4.34375 C 91.671875 4.359375 93.730469 4.359375 95.542969 4.3125 L 95.621094 4.390625 C 95.558594 5.136719 95.558594 5.339844 95.527344 6.117188 L 95.4375 6.210938 L 95.15625 6.210938 C 94.695312 6.210938 94.210938 6.195312 93.746094 6.195312 L 92.277344 6.195312 C 92.277344 7.300781 92.277344 7.578125 92.292969 8.777344 L 92.957031 8.777344 C 93.761719 8.777344 94.242188 8.761719 95.296875 8.730469 L 95.390625 8.824219 C 95.328125 9.617188 95.328125 9.726562 95.296875 10.488281 L 95.203125 10.582031 C 94.460938 10.566406 93.71875 10.566406 92.972656 10.566406 Z M 92.324219 10.566406 "/>
<path style=" stroke:none;fill-rule:nonzero;fill:rgb(100%,100%,100%);fill-opacity:1;" d="M 100.765625 10.566406 L 100.765625 13.398438 L 101.398438 13.398438 C 103.089844 13.367188 103.476562 13.367188 104.15625 13.320312 L 104.25 13.410156 C 104.1875 14.222656 104.171875 14.40625 104.140625 15.25 L 104.046875 15.339844 L 101.570312 15.339844 C 99.632812 15.339844 99.214844 15.339844 98.238281 15.386719 L 98.164062 15.292969 C 98.191406 14.066406 98.207031 13.195312 98.207031 11.1875 C 98.207031 8.960938 98.191406 6.085938 98.101562 4.433594 L 98.175781 4.34375 C 100.113281 4.359375 102.175781 4.359375 103.988281 4.3125 L 104.0625 4.390625 C 104 5.136719 104 5.339844 103.972656 6.117188 L 103.878906 6.210938 L 103.601562 6.210938 C 103.136719 6.210938 102.65625 6.195312 102.191406 6.195312 L 100.71875 6.195312 C 100.71875 7.300781 100.71875 7.578125 100.734375 8.777344 L 101.398438 8.777344 C 102.207031 8.777344 102.683594 8.761719 103.738281 8.730469 L 103.832031 8.824219 C 103.769531 9.617188 103.769531 9.726562 103.738281 10.488281 L 103.648438 10.582031 C 102.902344 10.566406 102.160156 10.566406 101.414062 10.566406 Z M 100.765625 10.566406 "/>
<path style=" stroke:none;fill-rule:nonzero;fill:rgb(100%,100%,100%);fill-opacity:1;" d="M 109.207031 10.566406 L 109.207031 13.398438 L 109.84375 13.398438 C 111.53125 13.367188 111.917969 13.367188 112.601562 13.320312 L 112.691406 13.410156 C 112.628906 14.222656 112.617188 14.40625 112.585938 15.25 L 112.492188 15.339844 L 110.015625 15.339844 C 108.078125 15.339844 107.660156 15.339844 106.683594 15.386719 L 106.605469 15.292969 C 106.636719 14.066406 106.652344 13.195312 106.652344 11.1875 C 106.652344 8.960938 106.636719 6.085938 106.542969 4.433594 L 106.621094 4.34375 C 108.554688 4.359375 110.617188 4.359375 112.429688 4.3125 L 112.507812 4.390625 C 112.445312 5.136719 112.445312 5.339844 112.414062 6.117188 L 112.320312 6.210938 L 112.042969 6.210938 C 111.578125 6.210938 111.097656 6.195312 110.632812 6.195312 L 109.164062 6.195312 C 109.164062 7.300781 109.164062 7.578125 109.175781 8.777344 L 109.84375 8.777344 C 110.648438 8.777344 111.128906 8.761719 112.183594 8.730469 L 112.273438 8.824219 C 112.210938 9.617188 112.210938 9.726562 112.183594 10.488281 L 112.089844 10.582031 C 111.347656 10.566406 110.601562 10.566406 109.859375 10.566406 Z M 109.207031 10.566406 "/>
<path style=" stroke:none;fill-rule:nonzero;fill:rgb(100%,100%,100%);fill-opacity:1;" d="M 90.773438 33.183594 C 84.683594 38.753906 75.214844 33.609375 77.933594 25.511719 C 79.730469 20.171875 86.699219 19.042969 90.769531 22.8125 C 90.90625 22.941406 90.917969 23.085938 90.800781 23.238281 L 89.441406 24.96875 C 89.265625 25.1875 88.9375 25.214844 88.734375 25.011719 C 83.261719 19.675781 77.363281 28.933594 83.3125 32.136719 C 85.507812 33.316406 86.972656 32.234375 88.949219 31.089844 C 89.078125 31.019531 89.230469 31.046875 89.328125 31.152344 L 90.792969 32.738281 C 90.933594 32.894531 90.925781 33.042969 90.773438 33.183594 Z M 90.773438 33.183594 "/>
<path style=" stroke:none;fill-rule:nonzero;fill:rgb(100%,100%,100%);fill-opacity:1;" d="M 107.472656 27.925781 C 107.550781 32.082031 104.121094 35.523438 99.804688 35.605469 C 95.492188 35.6875 91.933594 32.386719 91.851562 28.226562 C 91.773438 24.070312 95.203125 20.628906 99.519531 20.546875 C 103.832031 20.464844 107.390625 23.765625 107.472656 27.925781 M 104.207031 28.070312 C 104.207031 25.5625 102.179688 23.527344 99.683594 23.527344 C 97.183594 23.527344 95.15625 25.5625 95.15625 28.070312 C 95.15625 30.582031 97.183594 32.617188 99.683594 32.617188 C 102.179688 32.617188 104.207031 30.582031 104.207031 28.070312 Z M 104.207031 28.070312 "/>
<path style=" stroke:none;fill-rule:nonzero;fill:rgb(100%,100%,100%);fill-opacity:1;" d="M 118.238281 29.40625 L 122.445312 21 C 122.515625 20.851562 122.671875 20.757812 122.835938 20.757812 L 125.8125 20.757812 C 126.019531 20.757812 126.121094 20.859375 126.121094 21.066406 L 126.253906 35.054688 C 126.253906 35.195312 126.148438 35.300781 126.007812 35.300781 L 123.707031 35.3125 C 123.398438 35.316406 123.152344 35.066406 123.15625 34.757812 L 123.335938 25.90625 C 123.339844 25.722656 123.09375 25.664062 123.011719 25.828125 L 119.488281 33.101562 C 118.894531 34.328125 117.15625 34.335938 116.554688 33.109375 L 112.996094 25.851562 C 112.945312 25.742188 112.78125 25.777344 112.78125 25.898438 L 112.824219 35.039062 C 112.824219 35.21875 112.738281 35.308594 112.566406 35.308594 L 110.246094 35.308594 C 109.988281 35.308594 109.863281 35.179688 109.863281 34.921875 L 109.863281 21.078125 C 109.863281 20.867188 109.96875 20.757812 110.183594 20.757812 L 113.175781 20.757812 C 113.355469 20.757812 113.484375 20.839844 113.566406 21 L 117.832031 29.40625 C 117.972656 29.675781 118.105469 29.675781 118.238281 29.40625 Z M 118.238281 29.40625 "/>
<path style=" stroke:none;fill-rule:nonzero;fill:rgb(100%,100%,100%);fill-opacity:1;" d="M 132.808594 31.453125 L 132.980469 34.949219 C 132.988281 35.207031 132.777344 35.417969 132.523438 35.402344 L 129.84375 35.273438 C 129.6875 35.269531 129.609375 35.183594 129.609375 35.023438 L 129.609375 21.015625 C 129.609375 20.835938 129.695312 20.746094 129.875 20.746094 C 133.621094 20.75 141.890625 19.355469 141.519531 26.324219 C 141.246094 31.398438 136.882812 31.109375 133.046875 31.199219 C 132.882812 31.203125 132.804688 31.285156 132.808594 31.453125 M 132.832031 23.652344 L 132.800781 28.265625 C 132.800781 28.386719 132.890625 28.476562 133.011719 28.476562 L 135.789062 28.5 C 137.257812 28.511719 138.457031 27.453125 138.46875 26.136719 L 138.46875 25.867188 C 138.476562 24.546875 137.292969 23.472656 135.820312 23.460938 L 133.039062 23.441406 C 132.929688 23.441406 132.832031 23.539062 132.832031 23.652344 Z M 132.832031 23.652344 "/>
<path style=" stroke:none;fill-rule:nonzero;fill:rgb(100%,100%,100%);fill-opacity:1;" d="M 156.496094 30.761719 C 155.980469 36.414062 146.648438 37.132812 144.351562 32.488281 C 143.085938 29.925781 143.714844 24.152344 143.710938 21.183594 C 143.710938 20.972656 143.8125 20.867188 144.023438 20.855469 L 146.578125 20.730469 C 146.804688 20.714844 146.917969 20.824219 146.917969 21.054688 C 146.925781 23.414062 146.347656 29.449219 147.492188 31.308594 C 149.128906 33.964844 153.214844 32.816406 153.265625 29.480469 C 153.308594 26.660156 153.332031 23.84375 153.347656 21.027344 C 153.347656 20.847656 153.433594 20.757812 153.617188 20.757812 L 156.261719 20.757812 C 156.484375 20.757812 156.601562 20.867188 156.605469 21.089844 C 156.757812 25.085938 156.722656 28.308594 156.496094 30.761719 Z M 156.496094 30.761719 "/>
<path style=" stroke:none;fill-rule:nonzero;fill:rgb(100%,100%,100%);fill-opacity:1;" d="M 166.027344 23.851562 L 166.027344 35.113281 C 166.027344 35.261719 165.902344 35.378906 165.753906 35.375 L 162.945312 35.28125 C 162.804688 35.277344 162.691406 35.160156 162.691406 35.019531 L 162.691406 23.847656 C 162.691406 23.703125 162.574219 23.585938 162.433594 23.585938 L 158.597656 23.589844 C 158.453125 23.589844 158.335938 23.472656 158.335938 23.328125 L 158.335938 21.019531 C 158.335938 20.875 158.453125 20.757812 158.597656 20.757812 L 170.265625 20.757812 C 170.414062 20.757812 170.53125 20.875 170.523438 21.023438 L 170.492188 23.332031 C 170.488281 23.476562 170.375 23.589844 170.234375 23.589844 L 166.289062 23.589844 C 166.144531 23.589844 166.027344 23.707031 166.027344 23.851562 Z M 166.027344 23.851562 "/>
<path style=" stroke:none;fill-rule:nonzero;fill:rgb(100%,100%,100%);fill-opacity:1;" d="M 175.847656 26.707031 L 182.515625 26.664062 C 182.613281 26.664062 182.695312 26.746094 182.695312 26.84375 L 182.695312 29.203125 C 182.695312 29.300781 182.613281 29.382812 182.515625 29.382812 L 175.824219 29.382812 C 175.726562 29.382812 175.644531 29.464844 175.644531 29.5625 L 175.644531 32.453125 C 175.644531 32.550781 175.726562 32.632812 175.824219 32.632812 L 183.582031 32.585938 C 183.679688 32.585938 183.761719 32.667969 183.761719 32.765625 L 183.761719 35.125 C 183.761719 35.222656 183.679688 35.304688 183.582031 35.304688 L 172.617188 35.304688 C 172.519531 35.304688 172.4375 35.222656 172.4375 35.125 L 172.4375 20.9375 C 172.4375 20.839844 172.519531 20.757812 172.617188 20.757812 L 183.285156 20.757812 C 183.382812 20.757812 183.464844 20.839844 183.464844 20.9375 L 183.464844 23.324219 C 183.464844 23.421875 183.382812 23.503906 183.285156 23.503906 L 175.890625 23.441406 C 175.792969 23.441406 175.710938 23.523438 175.710938 23.621094 L 175.671875 26.519531 C 175.664062 26.625 175.746094 26.707031 175.847656 26.707031 Z M 175.847656 26.707031 "/>
<path style=" stroke:none;fill-rule:nonzero;fill:rgb(100%,100%,100%);fill-opacity:1;" d="M 189.710938 31.472656 L 189.886719 34.976562 C 189.898438 35.15625 189.746094 35.308594 189.570312 35.308594 L 186.800781 35.308594 C 186.628906 35.308594 186.542969 35.222656 186.542969 35.050781 L 186.542969 21.132812 C 186.542969 20.921875 186.648438 20.808594 186.859375 20.800781 C 191.527344 20.59375 199.488281 19.632812 198.738281 26.933594 C 198.585938 28.421875 197.757812 29.582031 196.265625 30.40625 C 196.132812 30.484375 196.085938 30.660156 196.175781 30.792969 L 198.964844 34.992188 C 199.054688 35.132812 198.960938 35.3125 198.796875 35.3125 L 195.765625 35.3125 C 195.59375 35.3125 195.441406 35.21875 195.359375 35.074219 L 193.28125 31.417969 C 193.199219 31.265625 193.070312 31.191406 192.894531 31.191406 L 189.976562 31.191406 C 189.789062 31.1875 189.703125 31.28125 189.710938 31.472656 M 189.777344 23.625 L 189.757812 28.3125 C 189.757812 28.40625 189.835938 28.476562 189.921875 28.476562 L 192.964844 28.488281 C 194.511719 28.492188 195.773438 27.414062 195.777344 26.074219 L 195.777344 25.910156 C 195.785156 24.570312 194.53125 23.476562 192.984375 23.472656 L 189.941406 23.460938 C 189.851562 23.460938 189.777344 23.535156 189.777344 23.625 Z M 189.777344 23.625 "/>
<path style=" stroke:none;fill-rule:nonzero;fill:rgb(100%,100%,100%);fill-opacity:1;" d="M 80.734375 52.863281 C 82.074219 50.601562 75.957031 49.710938 74.730469 48.792969 C 72.539062 47.167969 72.738281 44.101562 74.847656 42.515625 C 77.414062 40.59375 81.453125 41.300781 84.042969 42.832031 C 84.203125 42.929688 84.25 43.0625 84.171875 43.230469 L 83.183594 45.476562 C 83.105469 45.65625 82.984375 45.699219 82.8125 45.589844 C 81.21875 44.550781 79.472656 44.117188 77.570312 44.296875 C 77.417969 44.3125 77.269531 44.386719 77.160156 44.496094 C 76.191406 45.46875 76.667969 46.316406 77.78125 46.730469 C 79.566406 47.390625 83.078125 48.210938 83.960938 50.027344 C 85.21875 52.605469 83.730469 55.367188 81.042969 56.078125 C 77.980469 56.894531 75.148438 56.28125 72.558594 54.234375 C 72.421875 54.121094 72.378906 53.929688 72.457031 53.777344 L 73.527344 51.632812 C 73.589844 51.507812 73.75 51.480469 73.855469 51.566406 C 75.222656 52.738281 79.566406 54.832031 80.734375 52.863281 Z M 80.734375 52.863281 "/>
<path style=" stroke:none;fill-rule:nonzero;fill:rgb(100%,100%,100%);fill-opacity:1;" d="M 104.066406 44.292969 C 107.007812 40.523438 112.339844 40.53125 115.742188 43.609375 C 115.890625 43.746094 115.902344 43.890625 115.773438 44.046875 L 114.121094 46.039062 C 114.027344 46.148438 113.863281 46.148438 113.773438 46.039062 C 109.316406 40.667969 102.492188 48.429688 107.5 52.351562 C 109.488281 53.910156 111.597656 53.75 113.824219 51.878906 C 113.960938 51.761719 114.09375 51.773438 114.222656 51.90625 L 115.746094 53.546875 C 115.894531 53.707031 115.890625 53.863281 115.730469 54.011719 C 112.964844 56.613281 108.964844 57.238281 105.777344 55.164062 C 102.214844 52.859375 101.421875 47.679688 104.066406 44.292969 Z M 104.066406 44.292969 "/>
<path style=" stroke:none;fill-rule:nonzero;fill:rgb(100%,100%,100%);fill-opacity:1;" d="M 101.464844 48.992188 C 101.429688 53.152344 97.902344 56.488281 93.589844 56.453125 C 89.273438 56.417969 85.808594 53.011719 85.84375 48.855469 C 85.878906 44.695312 89.410156 41.355469 93.722656 41.394531 C 98.035156 41.429688 101.503906 44.832031 101.464844 48.992188 M 93.59375 53.558594 C 96.046875 53.617188 98.085938 51.585938 98.140625 49.03125 C 98.199219 46.472656 96.257812 44.355469 93.800781 44.296875 C 91.347656 44.242188 89.304688 46.269531 89.25 48.828125 C 89.195312 51.386719 91.136719 53.503906 93.59375 53.558594 Z M 93.59375 53.558594 "/>
<path style=" stroke:none;fill-rule:nonzero;fill:rgb(100%,100%,100%);fill-opacity:1;" d="M 121.398438 56.03125 C 121.398438 56.179688 121.277344 56.304688 121.128906 56.304688 L 118.46875 56.304688 C 118.320312 56.304688 118.199219 56.179688 118.199219 56.03125 L 118.199219 41.816406 C 118.199219 41.664062 118.320312 41.542969 118.46875 41.542969 L 121.128906 41.542969 C 121.277344 41.542969 121.398438 41.664062 121.398438 41.816406 Z M 121.398438 56.03125 "/>
<path style=" stroke:none;fill-rule:nonzero;fill:rgb(100%,100%,100%);fill-opacity:1;" d="M 128.25 47.542969 L 134.945312 47.542969 C 135.042969 47.542969 135.125 47.625 135.125 47.722656 L 135.125 50.101562 C 135.125 50.199219 135.042969 50.28125 134.945312 50.28125 L 128.25 50.230469 C 128.152344 50.230469 128.070312 50.3125 128.070312 50.410156 L 128.070312 53.320312 C 128.070312 53.417969 128.152344 53.5 128.25 53.5 L 135.96875 53.429688 C 136.066406 53.429688 136.148438 53.511719 136.148438 53.609375 L 136.148438 55.984375 C 136.148438 56.082031 136.066406 56.164062 135.96875 56.164062 L 125.042969 56.183594 C 124.949219 56.183594 124.863281 56.101562 124.863281 56.003906 L 124.863281 41.664062 C 124.863281 41.566406 124.949219 41.484375 125.042969 41.484375 L 135.710938 41.542969 C 135.808594 41.542969 135.890625 41.625 135.890625 41.722656 L 135.890625 44.183594 C 135.890625 44.28125 135.808594 44.363281 135.710938 44.363281 L 128.25 44.300781 C 128.152344 44.300781 128.070312 44.382812 128.070312 44.480469 L 128.070312 47.363281 C 128.070312 47.460938 128.152344 47.542969 128.25 47.542969 Z M 128.25 47.542969 "/>
<path style=" stroke:none;fill-rule:nonzero;fill:rgb(100%,100%,100%);fill-opacity:1;" d="M 145.09375 44.621094 L 145.199219 55.984375 C 145.199219 56.136719 145.074219 56.257812 144.925781 56.265625 L 142.203125 56.316406 C 142.050781 56.320312 141.921875 56.191406 141.921875 56.035156 L 141.921875 44.679688 C 141.921875 44.523438 141.792969 44.394531 141.636719 44.398438 L 137.84375 44.476562 C 137.6875 44.480469 137.5625 44.351562 137.5625 44.199219 L 137.5625 41.871094 C 137.5625 41.714844 137.683594 41.589844 137.839844 41.589844 L 149.332031 41.632812 C 149.488281 41.632812 149.609375 41.757812 149.609375 41.910156 L 149.621094 44.117188 C 149.621094 44.269531 149.492188 44.398438 149.339844 44.394531 L 145.378906 44.34375 C 145.222656 44.339844 145.09375 44.46875 145.09375 44.621094 Z M 145.09375 44.621094 "/>
<path style=" stroke:none;fill-rule:nonzero;fill:rgb(100%,100%,100%);fill-opacity:1;" d="M 157.136719 47.914062 L 160.453125 41.945312 C 160.574219 41.71875 160.8125 41.578125 161.066406 41.578125 L 163.523438 41.582031 C 163.714844 41.582031 163.832031 41.785156 163.746094 41.949219 C 162.226562 44.777344 160.683594 47.621094 159.121094 50.484375 C 158.230469 52.105469 158.597656 54.25 158.585938 56.039062 C 158.585938 56.183594 158.472656 56.296875 158.328125 56.296875 L 155.867188 56.296875 C 155.496094 56.296875 155.207031 55.988281 155.222656 55.617188 L 155.386719 51.933594 C 155.394531 51.75 155.355469 51.574219 155.265625 51.414062 L 150.179688 41.949219 C 150.0625 41.726562 150.121094 41.617188 150.375 41.617188 L 152.964844 41.617188 C 153.144531 41.617188 153.28125 41.695312 153.371094 41.855469 L 156.785156 47.914062 C 156.902344 48.125 157.019531 48.125 157.136719 47.914062 Z M 157.136719 47.914062 "/>
<path style=" stroke:none;fill-rule:nonzero;fill:rgb(98.039216%,64.313725%,10.196078%);fill-opacity:1;" d="M 46.136719 57.355469 L 46.136719 54.910156 L 45.777344 54.910156 L 45.777344 54.328125 L 47.09375 54.328125 L 47.09375 54.910156 L 46.738281 54.910156 L 46.738281 57.355469 Z M 46.136719 57.355469 "/>
<path style=" stroke:none;fill-rule:nonzero;fill:rgb(98.039216%,64.313725%,10.196078%);fill-opacity:1;" d="M 47.261719 57.355469 L 47.261719 54.328125 L 48.179688 54.328125 L 48.433594 56.175781 L 48.6875 54.328125 L 49.613281 54.328125 L 49.613281 57.355469 L 49.0625 57.355469 L 49.0625 55.175781 L 48.714844 57.355469 L 48.175781 57.355469 L 47.808594 55.175781 L 47.808594 57.355469 Z M 47.261719 57.355469 "/>
<path style=" stroke:none;fill-rule:nonzero;fill:rgb(98.039216%,64.313725%,10.196078%);fill-opacity:1;" d="M 78.316406 63.667969 C 78.292969 64.464844 78.292969 66.015625 78.292969 66.027344 C 78.292969 66.5 78.292969 66.667969 78.304688 67.089844 L 78.316406 67.976562 C 78.292969 68.691406 78.277344 69.476562 77.679688 70.089844 C 77.117188 70.640625 76.3125 70.808594 75.523438 70.808594 C 74.703125 70.808594 73.863281 70.601562 73.328125 69.988281 C 72.765625 69.347656 72.738281 68.476562 72.714844 67.601562 L 72.703125 66.605469 C 72.703125 65.21875 72.703125 65.066406 72.675781 63.695312 L 72.753906 63.617188 C 73.277344 63.617188 73.53125 63.605469 74.054688 63.578125 L 74.128906 63.667969 C 74.078125 65.089844 74.066406 66.628906 74.066406 66.808594 C 74.066406 67.386719 74.078125 67.820312 74.105469 68.179688 C 74.144531 68.730469 74.230469 69.859375 75.609375 69.859375 C 75.867188 69.859375 76.605469 69.835938 76.949219 69.128906 C 77.128906 68.769531 77.15625 68.296875 77.15625 67.285156 C 77.15625 66.949219 77.140625 64.824219 77.066406 63.707031 L 77.140625 63.617188 C 77.628906 63.617188 77.832031 63.605469 78.242188 63.582031 Z M 78.316406 63.667969 "/>
<path style=" stroke:none;fill-rule:nonzero;fill:rgb(98.039216%,64.313725%,10.196078%);fill-opacity:1;" d="M 86.0625 63.667969 C 86.027344 64.808594 86.027344 65.820312 86.027344 66.65625 C 86.027344 67.960938 86.039062 69.269531 86.0625 70.566406 L 85.988281 70.652344 C 85.300781 70.667969 85.261719 70.667969 84.609375 70.691406 L 84.519531 70.628906 C 84.496094 70.578125 84.46875 70.527344 84.445312 70.472656 C 84.035156 69.730469 83.832031 69.359375 83.382812 68.566406 L 81.558594 65.230469 L 81.636719 68.0625 C 81.648438 68.9375 81.660156 69.613281 81.710938 70.5625 L 81.648438 70.652344 C 81.085938 70.664062 81.035156 70.664062 80.484375 70.691406 L 80.421875 70.601562 C 80.449219 69.871094 80.472656 69.140625 80.472656 67.988281 C 80.472656 65.269531 80.433594 64.332031 80.410156 63.707031 L 80.472656 63.617188 C 81.125 63.617188 81.226562 63.617188 81.941406 63.578125 L 82.03125 63.65625 C 82.492188 64.527344 82.960938 65.359375 83.230469 65.847656 L 84.929688 68.933594 L 84.851562 65.960938 C 84.828125 64.523438 84.8125 64.359375 84.773438 63.707031 L 84.839844 63.617188 C 85.335938 63.617188 85.488281 63.617188 86 63.578125 Z M 86.0625 63.667969 "/>
<path style=" stroke:none;fill-rule:nonzero;fill:rgb(98.039216%,64.313725%,10.196078%);fill-opacity:1;" d="M 89.601562 63.65625 C 89.574219 64.359375 89.550781 65.167969 89.550781 66.886719 C 89.550781 68.691406 89.574219 69.527344 89.625 70.578125 L 89.5625 70.667969 C 88.9375 70.667969 88.820312 70.667969 88.261719 70.691406 L 88.183594 70.617188 C 88.222656 69.976562 88.234375 69.371094 88.234375 68.230469 C 88.234375 66.71875 88.234375 65.167969 88.160156 63.707031 L 88.222656 63.617188 C 88.644531 63.617188 88.9375 63.605469 89.523438 63.578125 Z M 89.601562 63.65625 "/>
<path style=" stroke:none;fill-rule:nonzero;fill:rgb(98.039216%,64.313725%,10.196078%);fill-opacity:1;" d="M 94.652344 70.667969 C 93.863281 70.667969 93.800781 70.667969 93.019531 70.691406 L 92.933594 70.617188 C 92.613281 69.511719 92.292969 68.398438 91.949219 67.296875 C 91.617188 66.242188 91.285156 65.195312 90.953125 64.144531 L 90.816406 63.707031 L 90.878906 63.617188 C 91.296875 63.617188 91.617188 63.605469 92.257812 63.582031 L 92.332031 63.65625 C 92.691406 65.042969 92.804688 65.476562 93.035156 66.257812 L 93.964844 69.628906 L 94.972656 66.054688 C 95.039062 65.796875 95.101562 65.554688 95.179688 65.3125 C 95.230469 65.078125 95.535156 63.953125 95.613281 63.695312 L 95.6875 63.621094 C 96.097656 63.621094 96.351562 63.605469 96.863281 63.582031 L 96.925781 63.671875 C 96.761719 64.183594 95.980469 66.65625 95.804688 67.222656 C 95.484375 68.207031 95.152344 69.183594 94.859375 70.167969 C 94.820312 70.308594 94.769531 70.453125 94.730469 70.59375 Z M 94.652344 70.667969 "/>
<path style=" stroke:none;fill-rule:nonzero;fill:rgb(98.039216%,64.313725%,10.196078%);fill-opacity:1;" d="M 102.667969 69.769531 C 102.644531 70.128906 102.632812 70.167969 102.617188 70.578125 L 102.542969 70.652344 C 100.527344 70.667969 100.308594 70.667969 98.179688 70.691406 L 98.113281 70.601562 C 98.179688 69.4375 98.179688 69.117188 98.179688 66.359375 C 98.179688 64.886719 98.152344 64.347656 98.101562 63.707031 L 98.179688 63.617188 C 99.824219 63.617188 100.742188 63.605469 102.582031 63.578125 L 102.660156 63.667969 C 102.609375 64.015625 102.59375 64.128906 102.582031 64.527344 L 102.503906 64.617188 C 101.023438 64.578125 100.527344 64.566406 99.519531 64.566406 C 99.492188 65.425781 99.492188 65.628906 99.492188 66.527344 C 100.695312 66.527344 100.847656 66.527344 102.3125 66.5 L 102.378906 66.589844 C 102.339844 66.960938 102.339844 67.054688 102.328125 67.4375 L 102.25 67.527344 C 100.921875 67.488281 100.539062 67.488281 99.492188 67.488281 C 99.480469 68.320312 99.46875 68.667969 99.480469 69.71875 C 100.796875 69.71875 101.179688 69.71875 102.609375 69.667969 Z M 102.667969 69.769531 "/>
<path style=" stroke:none;fill-rule:nonzero;fill:rgb(98.039216%,64.313725%,10.196078%);fill-opacity:1;" d="M 108.105469 70.652344 C 107.789062 70.089844 107.558594 69.757812 107.074219 69.015625 C 106.78125 68.578125 106.5 68.15625 106.21875 67.71875 C 105.960938 67.730469 105.898438 67.730469 105.683594 67.71875 C 105.683594 67.859375 105.695312 69.539062 105.757812 70.578125 L 105.695312 70.667969 C 105.160156 70.667969 104.96875 70.667969 104.40625 70.691406 L 104.328125 70.617188 C 104.355469 69.921875 104.367188 69.386719 104.367188 68.011719 C 104.367188 65.398438 104.328125 64.679688 104.265625 63.707031 L 104.34375 63.617188 C 104.816406 63.617188 105.171875 63.617188 105.667969 63.605469 L 106.269531 63.605469 C 106.816406 63.605469 107.40625 63.617188 107.839844 63.746094 C 108.679688 63.988281 109.164062 64.679688 109.164062 65.550781 C 109.164062 66.949219 107.902344 67.410156 107.519531 67.511719 C 107.671875 67.71875 108.402344 68.78125 108.566406 69.023438 C 109.011719 69.691406 109.359375 70.140625 109.703125 70.574219 L 109.640625 70.664062 C 109 70.679688 108.875 70.679688 108.195312 70.714844 Z M 106.292969 66.796875 C 106.726562 66.769531 107.824219 66.707031 107.824219 65.578125 C 107.824219 64.875 107.351562 64.628906 106.945312 64.566406 C 106.613281 64.5 106.140625 64.515625 105.667969 64.527344 C 105.65625 65.644531 105.65625 65.746094 105.667969 66.796875 Z M 106.292969 66.796875 "/>
<path style=" stroke:none;fill-rule:nonzero;fill:rgb(98.039216%,64.313725%,10.196078%);fill-opacity:1;" d="M 114.628906 64.988281 C 114.347656 64.796875 113.824219 64.4375 112.945312 64.4375 C 112.152344 64.4375 111.769531 64.832031 111.769531 65.308594 C 111.769531 65.859375 112.214844 66.078125 113.3125 66.589844 C 114.15625 67 115.113281 67.460938 115.113281 68.679688 C 115.113281 69.703125 114.335938 70.808594 112.523438 70.808594 C 111.460938 70.808594 110.761719 70.472656 110.519531 70.359375 L 110.46875 70.257812 C 110.480469 70.117188 110.492188 69.976562 110.503906 69.835938 C 110.519531 69.601562 110.53125 69.371094 110.554688 69.128906 L 110.65625 69.105469 C 111.015625 69.410156 111.488281 69.820312 112.457031 69.820312 C 113.492188 69.820312 113.734375 69.207031 113.734375 68.808594 C 113.734375 68.207031 113.300781 67.949219 112.636719 67.65625 L 112.148438 67.425781 C 111.449219 67.089844 110.464844 66.605469 110.464844 65.425781 C 110.464844 64.296875 111.34375 63.464844 112.863281 63.464844 C 113.746094 63.464844 114.445312 63.707031 114.738281 63.808594 L 114.804688 63.898438 C 114.753906 64.320312 114.753906 64.414062 114.726562 64.9375 Z M 114.628906 64.988281 "/>
<path style=" stroke:none;fill-rule:nonzero;fill:rgb(98.039216%,64.313725%,10.196078%);fill-opacity:1;" d="M 118.050781 63.65625 C 118.023438 64.359375 118 65.167969 118 66.886719 C 118 68.691406 118.023438 69.527344 118.074219 70.578125 L 118.011719 70.667969 C 117.386719 70.667969 117.269531 70.667969 116.710938 70.691406 L 116.632812 70.617188 C 116.671875 69.976562 116.683594 69.371094 116.683594 68.230469 C 116.683594 66.71875 116.683594 65.167969 116.609375 63.707031 L 116.671875 63.617188 C 117.09375 63.617188 117.386719 63.605469 117.972656 63.578125 Z M 118.050781 63.65625 "/>
<path style=" stroke:none;fill-rule:nonzero;fill:rgb(98.039216%,64.313725%,10.196078%);fill-opacity:1;" d="M 124.316406 64.578125 C 123.703125 64.566406 123.359375 64.566406 122.59375 64.566406 C 122.566406 66.050781 122.566406 68.332031 122.644531 70.566406 L 122.582031 70.667969 C 122.019531 70.667969 121.761719 70.679688 121.253906 70.703125 L 121.175781 70.617188 C 121.226562 69.21875 121.242188 67.820312 121.242188 66.425781 C 121.242188 66.167969 121.242188 65.375 121.214844 64.566406 C 120.472656 64.578125 120.308594 64.578125 119.453125 64.605469 L 119.390625 64.515625 C 119.414062 64.167969 119.429688 64 119.429688 63.707031 L 119.492188 63.617188 C 121.125 63.605469 122.746094 63.589844 124.378906 63.578125 L 124.441406 63.667969 C 124.40625 64.039062 124.40625 64.128906 124.390625 64.5 Z M 124.316406 64.578125 "/>
<path style=" stroke:none;fill-rule:nonzero;fill:rgb(98.039216%,64.313725%,10.196078%);fill-opacity:1;" d="M 128.734375 70.667969 C 128.09375 70.667969 127.878906 70.667969 127.445312 70.691406 L 127.367188 70.601562 C 127.378906 70.511719 127.378906 70.4375 127.378906 70.347656 C 127.40625 69.859375 127.40625 68.730469 127.40625 68.207031 L 127.40625 67.769531 C 126.242188 65.578125 125.863281 64.914062 125.171875 63.734375 L 125.210938 63.632812 C 125.453125 63.617188 125.695312 63.605469 125.925781 63.59375 C 126.15625 63.582031 126.371094 63.566406 126.601562 63.554688 L 126.703125 63.605469 C 126.726562 63.683594 126.765625 63.746094 126.792969 63.824219 C 126.972656 64.234375 127.097656 64.488281 128.195312 66.644531 C 128.503906 66.054688 129.382812 64.246094 129.640625 63.683594 L 129.726562 63.617188 C 130.148438 63.617188 130.417969 63.605469 130.964844 63.582031 L 131.015625 63.683594 C 130.660156 64.308594 130.070312 65.324219 129.714844 65.949219 C 129.230469 66.796875 129.039062 67.140625 128.769531 67.679688 C 128.757812 67.914062 128.757812 68.128906 128.757812 68.449219 C 128.757812 68.976562 128.769531 69.769531 128.808594 70.589844 Z M 128.734375 70.667969 "/>
<path style=" stroke:none;fill-rule:nonzero;fill:rgb(98.039216%,64.313725%,10.196078%);fill-opacity:1;" d="M 142.375 68.460938 C 141.941406 70.117188 140.640625 70.808594 139.199219 70.808594 C 138.75 70.808594 138.304688 70.746094 137.882812 70.578125 C 136.351562 69.960938 135.945312 68.4375 135.945312 67.140625 C 135.945312 64.925781 137.183594 63.464844 139.261719 63.464844 C 141.265625 63.464844 142.53125 64.886719 142.53125 67.195312 C 142.53125 67.617188 142.492188 68.050781 142.375 68.460938 Z M 140.144531 69.628906 C 140.933594 69.128906 141.125 68.039062 141.125 67.167969 C 141.125 65.898438 140.769531 64.398438 139.25 64.398438 C 138.96875 64.398438 138.648438 64.449219 138.355469 64.628906 C 138.101562 64.769531 137.894531 64.988281 137.742188 65.246094 C 137.410156 65.824219 137.359375 66.734375 137.359375 67.089844 C 137.359375 68.71875 137.984375 69.871094 139.25 69.871094 C 139.554688 69.871094 139.875 69.792969 140.144531 69.628906 Z M 140.144531 69.628906 "/>
<path style=" stroke:none;fill-rule:nonzero;fill:rgb(98.039216%,64.313725%,10.196078%);fill-opacity:1;" d="M 148.042969 67.640625 C 146.945312 67.617188 146.398438 67.601562 145.683594 67.601562 C 145.683594 68.359375 145.683594 69.65625 145.746094 70.566406 L 145.683594 70.652344 C 145.070312 70.667969 144.992188 70.667969 144.355469 70.691406 L 144.277344 70.601562 C 144.34375 69.179688 144.34375 67.707031 144.34375 66.257812 C 144.34375 64.886719 144.316406 64.296875 144.277344 63.707031 L 144.355469 63.617188 L 144.816406 63.617188 C 146.066406 63.617188 147.378906 63.617188 148.554688 63.582031 L 148.617188 63.683594 C 148.578125 64.054688 148.566406 64.15625 148.554688 64.542969 L 148.476562 64.617188 C 147.113281 64.578125 146.804688 64.578125 145.695312 64.566406 C 145.671875 65.554688 145.671875 65.683594 145.671875 66.65625 C 146.753906 66.65625 147.101562 66.644531 148.132812 66.605469 L 148.195312 66.695312 C 148.160156 67.089844 148.160156 67.117188 148.121094 67.554688 Z M 148.042969 67.640625 "/>
<path style=" stroke:none;fill-rule:nonzero;fill:rgb(98.039216%,64.313725%,10.196078%);fill-opacity:1;" d="M 155.890625 67.679688 C 155.890625 67.898438 155.90625 68.398438 155.90625 68.589844 C 155.90625 69.410156 155.828125 70.71875 153.976562 70.71875 C 153.621094 70.71875 153.390625 70.667969 153.171875 70.617188 L 153.097656 70.5 L 153.097656 69.679688 L 153.171875 69.601562 C 153.378906 69.667969 153.53125 69.71875 153.773438 69.71875 C 154.5 69.71875 154.539062 69.167969 154.550781 68.746094 C 154.550781 68.5 154.566406 68.027344 154.566406 67.425781 C 154.566406 66.179688 154.550781 64.9375 154.488281 63.707031 L 154.550781 63.617188 C 155.152344 63.617188 155.230469 63.617188 155.855469 63.59375 L 155.929688 63.683594 C 155.878906 65.414062 155.878906 66.015625 155.890625 66.796875 Z M 155.890625 67.679688 "/>
<path style=" stroke:none;fill-rule:nonzero;fill:rgb(98.039216%,64.313725%,10.196078%);fill-opacity:1;" d="M 164.136719 68.460938 C 163.703125 70.117188 162.402344 70.808594 160.960938 70.808594 C 160.511719 70.808594 160.066406 70.746094 159.644531 70.578125 C 158.113281 69.960938 157.707031 68.4375 157.707031 67.140625 C 157.707031 64.925781 158.945312 63.464844 161.023438 63.464844 C 163.027344 63.464844 164.292969 64.886719 164.292969 67.195312 C 164.289062 67.617188 164.253906 68.050781 164.136719 68.460938 Z M 161.902344 69.628906 C 162.695312 69.128906 162.886719 68.039062 162.886719 67.167969 C 162.886719 65.898438 162.527344 64.398438 161.011719 64.398438 C 160.730469 64.398438 160.410156 64.449219 160.117188 64.628906 C 159.863281 64.769531 159.65625 64.988281 159.503906 65.246094 C 159.171875 65.824219 159.121094 66.734375 159.121094 67.089844 C 159.121094 68.71875 159.746094 69.871094 161.011719 69.871094 C 161.316406 69.871094 161.636719 69.792969 161.902344 69.628906 Z M 161.902344 69.628906 "/>
<path style=" stroke:none;fill-rule:nonzero;fill:rgb(98.039216%,64.313725%,10.196078%);fill-opacity:1;" d="M 169.867188 70.652344 C 169.550781 70.089844 169.320312 69.757812 168.835938 69.015625 C 168.542969 68.578125 168.261719 68.15625 167.980469 67.71875 C 167.722656 67.730469 167.660156 67.730469 167.445312 67.71875 C 167.445312 67.859375 167.457031 69.539062 167.519531 70.578125 L 167.457031 70.667969 C 166.921875 70.667969 166.730469 70.667969 166.167969 70.691406 L 166.089844 70.617188 C 166.117188 69.921875 166.128906 69.386719 166.128906 68.011719 C 166.128906 65.398438 166.089844 64.679688 166.027344 63.707031 L 166.105469 63.617188 C 166.578125 63.617188 166.933594 63.617188 167.429688 63.605469 L 168.03125 63.605469 C 168.578125 63.605469 169.167969 63.617188 169.601562 63.746094 C 170.441406 63.988281 170.925781 64.679688 170.925781 65.550781 C 170.925781 66.949219 169.664062 67.410156 169.28125 67.511719 C 169.433594 67.71875 170.160156 68.78125 170.328125 69.023438 C 170.773438 69.691406 171.121094 70.140625 171.464844 70.574219 L 171.402344 70.664062 C 170.761719 70.679688 170.636719 70.679688 169.957031 70.714844 Z M 168.054688 66.796875 C 168.488281 66.769531 169.585938 66.707031 169.585938 65.578125 C 169.585938 64.875 169.113281 64.628906 168.707031 64.566406 C 168.375 64.5 167.902344 64.515625 167.429688 64.527344 C 167.417969 65.644531 167.417969 65.746094 167.429688 66.796875 Z M 168.054688 66.796875 "/>
<path style=" stroke:none;fill-rule:nonzero;fill:rgb(98.039216%,64.313725%,10.196078%);fill-opacity:1;" d="M 172.84375 70.703125 L 172.777344 70.617188 C 172.816406 69.472656 172.816406 68.347656 172.816406 67.796875 C 172.816406 65.347656 172.777344 64.476562 172.742188 63.707031 L 172.804688 63.617188 L 174.335938 63.582031 L 174.972656 63.582031 C 176.070312 63.582031 177.78125 63.632812 178.496094 65.453125 C 178.664062 65.859375 178.753906 66.347656 178.753906 66.976562 C 178.753906 68.515625 178.113281 69.886719 176.609375 70.410156 C 175.828125 70.691406 175.191406 70.691406 173.597656 70.691406 Z M 176.199219 69.449219 C 177.015625 69.015625 177.375 68.039062 177.375 66.886719 C 177.375 64.488281 175.6875 64.488281 174.949219 64.488281 C 174.640625 64.488281 174.386719 64.5 174.144531 64.5 C 174.117188 65.207031 174.117188 65.527344 174.117188 67.488281 C 174.117188 67.988281 174.117188 68.925781 174.144531 69.742188 C 174.792969 69.757812 175.613281 69.769531 176.199219 69.449219 Z M 176.199219 69.449219 "/>
<path style=" stroke:none;fill-rule:nonzero;fill:rgb(98.039216%,64.313725%,10.196078%);fill-opacity:1;" d="M 183.664062 63.824219 C 183.972656 64.9375 184.328125 66.027344 184.660156 67.128906 C 185.003906 68.246094 185.324219 69.371094 185.707031 70.476562 C 185.71875 70.511719 185.734375 70.539062 185.746094 70.578125 L 185.667969 70.652344 C 185.082031 70.652344 184.839844 70.667969 184.367188 70.691406 L 184.292969 70.617188 C 184.0625 69.742188 184.011719 69.511719 183.730469 68.550781 C 182.746094 68.539062 182.480469 68.539062 181.496094 68.550781 C 181.230469 69.488281 181.164062 69.71875 180.949219 70.578125 L 180.871094 70.652344 C 180.386719 70.652344 180.15625 70.667969 179.699219 70.691406 L 179.632812 70.601562 C 180.066406 69.421875 180.207031 69.015625 180.882812 66.910156 C 181.546875 64.875 181.625 64.644531 181.917969 63.695312 L 181.996094 63.617188 C 182.480469 63.617188 182.835938 63.605469 183.550781 63.578125 L 183.628906 63.667969 Z M 181.777344 67.640625 C 182.554688 67.65625 182.746094 67.65625 183.476562 67.640625 L 182.671875 64.746094 Z M 181.777344 67.640625 "/>
<path style=" stroke:none;fill-rule:nonzero;fill:rgb(98.039216%,64.313725%,10.196078%);fill-opacity:1;" d="M 192.585938 63.667969 C 192.550781 64.808594 192.550781 65.820312 192.550781 66.65625 C 192.550781 67.960938 192.5625 69.269531 192.585938 70.566406 L 192.511719 70.652344 C 191.824219 70.667969 191.785156 70.667969 191.132812 70.691406 L 191.042969 70.628906 C 191.019531 70.578125 190.992188 70.527344 190.96875 70.472656 C 190.558594 69.730469 190.355469 69.359375 189.90625 68.566406 L 188.082031 65.230469 L 188.160156 68.0625 C 188.171875 68.9375 188.183594 69.613281 188.234375 70.5625 L 188.171875 70.652344 C 187.609375 70.664062 187.558594 70.664062 187.007812 70.691406 L 186.945312 70.601562 C 186.972656 69.871094 186.996094 69.140625 186.996094 67.988281 C 186.996094 65.269531 186.957031 64.332031 186.933594 63.707031 L 186.996094 63.617188 C 187.648438 63.617188 187.75 63.617188 188.464844 63.578125 L 188.554688 63.65625 C 189.011719 64.527344 189.484375 65.359375 189.753906 65.847656 L 191.453125 68.933594 L 191.375 65.960938 C 191.347656 64.523438 191.335938 64.359375 191.296875 63.707031 L 191.363281 63.617188 C 191.859375 63.617188 192.011719 63.617188 192.523438 63.578125 Z M 192.585938 63.667969 "/>
</g>
</svg>
